<svg xmlns="http://www.w3.org/2000/svg" viewBox="0 0 1280 720" width="1280" height="720">
  <defs>
    <!-- Sky gradient: deep blue-violet at top to warm light blue near horizon -->
    <linearGradient id="sky" x1="0" y1="0" x2="0" y2="1">
      <stop offset="0%" stop-color="#0d1a3a"/>
      <stop offset="40%" stop-color="#1a3560"/>
      <stop offset="75%" stop-color="#3a6898"/>
      <stop offset="100%" stop-color="#8cb8d8"/>
    </linearGradient>
    <!-- Atmospheric haze near horizon -->
    <linearGradient id="haze" x1="0" y1="0" x2="0" y2="1">
      <stop offset="0%" stop-color="#8cb8d8" stop-opacity="0"/>
      <stop offset="100%" stop-color="#c8dff0" stop-opacity="0.6"/>
    </linearGradient>
    <!-- Ground / city base gradient -->
    <linearGradient id="ground" x1="0" y1="0" x2="0" y2="1">
      <stop offset="0%" stop-color="#1e2f3f"/>
      <stop offset="100%" stop-color="#0d1520"/>
    </linearGradient>
    <!-- Mountain snow gradient -->
    <linearGradient id="snow1" x1="0" y1="0" x2="0" y2="1">
      <stop offset="0%" stop-color="#e8f0f8"/>
      <stop offset="60%" stop-color="#c0d4e8"/>
      <stop offset="100%" stop-color="#7aa4c4"/>
    </linearGradient>
    <linearGradient id="snow2" x1="0" y1="0" x2="0" y2="1">
      <stop offset="0%" stop-color="#ddeaf6"/>
      <stop offset="70%" stop-color="#aac4dc"/>
      <stop offset="100%" stop-color="#6898bc"/>
    </linearGradient>
    <!-- City glow -->
    <radialGradient id="cityGlow" cx="50%" cy="80%" r="60%">
      <stop offset="0%" stop-color="#4a9fcc" stop-opacity="0.3"/>
      <stop offset="100%" stop-color="#0d1520" stop-opacity="0"/>
    </radialGradient>
    <!-- Light beam for towers -->
    <linearGradient id="towerGrad" x1="0" y1="0" x2="0" y2="1">
      <stop offset="0%" stop-color="#6bbde8"/>
      <stop offset="40%" stop-color="#3a7aaa"/>
      <stop offset="100%" stop-color="#1a3550"/>
    </linearGradient>
    <linearGradient id="glassTower" x1="0" y1="0" x2="1" y2="1">
      <stop offset="0%" stop-color="#9dd4ee"/>
      <stop offset="50%" stop-color="#4a90c0"/>
      <stop offset="100%" stop-color="#1e4060"/>
    </linearGradient>
    <!-- Glowing window strips -->
    <linearGradient id="windowGlow" x1="0" y1="0" x2="1" y2="0">
      <stop offset="0%" stop-color="#a0d8f0" stop-opacity="0.8"/>
      <stop offset="50%" stop-color="#ffffff" stop-opacity="0.9"/>
      <stop offset="100%" stop-color="#a0d8f0" stop-opacity="0.8"/>
    </linearGradient>
    <!-- Elevated road gradient -->
    <linearGradient id="roadGrad" x1="0" y1="0" x2="1" y2="0">
      <stop offset="0%" stop-color="#0d1520"/>
      <stop offset="30%" stop-color="#1e3050"/>
      <stop offset="70%" stop-color="#1e3050"/>
      <stop offset="100%" stop-color="#0d1520"/>
    </linearGradient>
    <!-- Solar panel gradient -->
    <linearGradient id="solar" x1="0" y1="0" x2="1" y2="1">
      <stop offset="0%" stop-color="#1a3a5c"/>
      <stop offset="50%" stop-color="#0d2030"/>
      <stop offset="100%" stop-color="#2a5080"/>
    </linearGradient>
    <!-- Green park gradient -->
    <linearGradient id="park" x1="0" y1="0" x2="0" y2="1">
      <stop offset="0%" stop-color="#2a5a30"/>
      <stop offset="100%" stop-color="#1a3820"/>
    </linearGradient>
    <!-- Filter for glow effect -->
    <filter id="glow" x="-20%" y="-20%" width="140%" height="140%">
      <feGaussianBlur stdDeviation="3" result="blur"/>
      <feMerge>
        <feMergeNode in="blur"/>
        <feMergeNode in="SourceGraphic"/>
      </feMerge>
    </filter>
    <filter id="softGlow" x="-30%" y="-30%" width="160%" height="160%">
      <feGaussianBlur stdDeviation="6" result="blur"/>
      <feMerge>
        <feMergeNode in="blur"/>
        <feMergeNode in="SourceGraphic"/>
      </feMerge>
    </filter>
    <filter id="mountainBlur">
      <feGaussianBlur stdDeviation="1.5"/>
    </filter>
    <filter id="hazeBlur">
      <feGaussianBlur stdDeviation="4"/>
    </filter>
  </defs>

  <!-- === SKY === -->
  <rect width="1280" height="720" fill="url(#sky)"/>

  <!-- Stars (subtle) -->
  <g opacity="0.6">
    <circle cx="80" cy="40" r="1" fill="#fff" opacity="0.7"/>
    <circle cx="200" cy="20" r="1.2" fill="#fff" opacity="0.8"/>
    <circle cx="350" cy="55" r="0.8" fill="#fff" opacity="0.6"/>
    <circle cx="500" cy="30" r="1" fill="#fff" opacity="0.7"/>
    <circle cx="680" cy="18" r="1.1" fill="#fff" opacity="0.8"/>
    <circle cx="820" cy="45" r="0.9" fill="#fff" opacity="0.6"/>
    <circle cx="950" cy="25" r="1" fill="#fff" opacity="0.7"/>
    <circle cx="1100" cy="35" r="1.2" fill="#fff" opacity="0.8"/>
    <circle cx="1200" cy="50" r="0.8" fill="#fff" opacity="0.6"/>
    <circle cx="130" cy="80" r="0.7" fill="#fff" opacity="0.5"/>
    <circle cx="430" cy="75" r="0.9" fill="#fff" opacity="0.6"/>
    <circle cx="760" cy="65" r="0.8" fill="#fff" opacity="0.5"/>
    <circle cx="1020" cy="70" r="1" fill="#fff" opacity="0.7"/>
  </g>

  <!-- === MOUNTAINS (Zailiysky Alatau) === -->
  <!-- Far background mountains - hazy, bluish -->
  <g filter="url(#mountainBlur)" opacity="0.7">
    <!-- Far left peak -->
    <polygon points="0,340 80,220 180,310 240,260 320,310 400,240 480,300 560,250 640,300 700,240 760,300 800,350 0,350" fill="#3a6080"/>
    <!-- Far right section -->
    <polygon points="700,340 780,230 880,290 960,240 1060,290 1140,230 1220,280 1280,310 1280,350 700,350" fill="#3a6080"/>
  </g>

  <!-- Mid mountains with snow caps -->
  <g opacity="0.9">
    <!-- Large central peak (main Almaty mountain) -->
    <polygon points="440,180 520,90 600,170 680,120 760,200 840,130 920,220 970,300 400,300" fill="#4a7898"/>
    <polygon points="520,90 560,130 600,170 640,140 680,120 720,160 760,200 800,165 840,130 900,215 440,180" fill="url(#snow1)" opacity="0.9"/>
    <!-- Snow detail on central peak -->
    <polygon points="520,90 530,105 540,100 555,120 570,110 580,130 600,170 590,165 575,140 555,155 535,130 520,90" fill="#e8f4fc" opacity="0.8"/>

    <!-- Left peak -->
    <polygon points="200,200 280,110 360,160 420,190 480,220 200,260" fill="#446688"/>
    <polygon points="280,110 300,135 330,145 360,160 340,170 310,155 285,135 280,110" fill="#ddeaf6" opacity="0.85"/>

    <!-- Right peak -->
    <polygon points="860,190 940,100 1010,150 1080,120 1150,170 1200,210 860,250" fill="#446688"/>
    <polygon points="940,100 960,125 990,135 1010,150 990,160 965,140 945,120 940,100" fill="#ddeaf6" opacity="0.85"/>

    <!-- Smaller left distant peak -->
    <polygon points="60,250 120,175 190,220 240,255 60,270" fill="#3f6888"/>
    <polygon points="120,175 135,195 155,200 190,220 160,230 130,205 120,175" fill="#d8eaf8" opacity="0.7"/>

    <!-- Smaller right distant peak -->
    <polygon points="1090,240 1140,170 1200,210 1260,235 1280,250 1090,260" fill="#3f6888"/>
    <polygon points="1140,170 1155,190 1175,195 1200,210 1180,215 1155,198 1140,170" fill="#d8eaf8" opacity="0.7"/>
  </g>

  <!-- Mountain foothills / lower terrain -->
  <polygon points="0,310 200,280 400,300 640,270 880,285 1060,275 1280,295 1280,380 0,380" fill="#2a4a60" opacity="0.8"/>

  <!-- Atmospheric haze layer -->
  <rect x="0" y="260" width="1280" height="120" fill="url(#haze)"/>

  <!-- === CITY BASE GROUND === -->
  <rect x="0" y="390" width="1280" height="330" fill="url(#ground)"/>

  <!-- City ambient glow -->
  <ellipse cx="640" cy="560" rx="700" ry="200" fill="#1a4a6a" opacity="0.4"/>

  <!-- === CITY BUILDINGS === -->

  <!-- Far background city layer (small, hazy buildings) -->
  <g opacity="0.5">
    <rect x="100" y="340" width="30" height="60" rx="2" fill="#3a6888"/>
    <rect x="140" y="325" width="25" height="75" rx="2" fill="#3a6888"/>
    <rect x="175" y="335" width="35" height="65" rx="2" fill="#3a6888"/>
    <rect x="220" y="320" width="28" height="80" rx="2" fill="#3a6888"/>
    <rect x="260" y="330" width="32" height="70" rx="2" fill="#3a6888"/>
    <rect x="300" y="315" width="25" height="85" rx="2" fill="#3a6888"/>
    <rect x="900" y="335" width="30" height="65" rx="2" fill="#3a6888"/>
    <rect x="940" y="320" width="25" height="80" rx="2" fill="#3a6888"/>
    <rect x="975" y="330" width="35" height="70" rx="2" fill="#3a6888"/>
    <rect x="1020" y="318" width="28" height="82" rx="2" fill="#3a6888"/>
    <rect x="1060" y="328" width="30" height="72" rx="2" fill="#3a6888"/>
    <rect x="1100" y="312" width="26" height="88" rx="2" fill="#3a6888"/>
  </g>

  <!-- Mid-layer buildings -->
  <g opacity="0.75">
    <rect x="80" y="370" width="50" height="110" rx="3" fill="#1e3a55"/>
    <rect x="140" y="355" width="40" height="125" rx="3" fill="#1e3a55"/>
    <rect x="190" y="365" width="55" height="115" rx="3" fill="#243f5a"/>
    <rect x="255" y="345" width="45" height="135" rx="3" fill="#1e3a55"/>
    <rect x="310" y="360" width="50" height="120" rx="3" fill="#243f5a"/>
    <!-- Window lights mid-left -->
    <rect x="88" y="380" width="8" height="3" rx="1" fill="#80c8e8" opacity="0.7"/>
    <rect x="100" y="380" width="8" height="3" rx="1" fill="#80c8e8" opacity="0.7"/>
    <rect x="88" y="390" width="8" height="3" rx="1" fill="#a8daf0" opacity="0.8"/>
    <rect x="100" y="390" width="8" height="3" rx="1" fill="#a8daf0" opacity="0.6"/>
    <rect x="88" y="400" width="8" height="3" rx="1" fill="#80c8e8" opacity="0.5"/>
    <rect x="88" y="410" width="8" height="3" rx="1" fill="#80c8e8" opacity="0.7"/>
    <rect x="100" y="410" width="8" height="3" rx="1" fill="#a8daf0" opacity="0.6"/>

    <!-- Right mid buildings -->
    <rect x="880" y="370" width="50" height="110" rx="3" fill="#1e3a55"/>
    <rect x="940" y="355" width="40" height="125" rx="3" fill="#1e3a55"/>
    <rect x="990" y="365" width="55" height="115" rx="3" fill="#243f5a"/>
    <rect x="1055" y="345" width="45" height="135" rx="3" fill="#1e3a55"/>
    <rect x="1110" y="360" width="50" height="120" rx="3" fill="#243f5a"/>
    <!-- Window lights mid-right -->
    <rect x="888" y="380" width="8" height="3" rx="1" fill="#80c8e8" opacity="0.7"/>
    <rect x="900" y="380" width="8" height="3" rx="1" fill="#80c8e8" opacity="0.6"/>
    <rect x="888" y="392" width="8" height="3" rx="1" fill="#a8daf0" opacity="0.8"/>
    <rect x="888" y="404" width="8" height="3" rx="1" fill="#80c8e8" opacity="0.5"/>
    <rect x="900" y="404" width="8" height="3" rx="1" fill="#a8daf0" opacity="0.7"/>
  </g>

  <!-- === MAIN FOREGROUND TOWERS === -->

  <!-- Left cluster of towers -->
  <!-- Tower L1: stepped/terrace style -->
  <g filter="url(#glow)">
    <rect x="330" y="300" width="65" height="200" rx="4" fill="url(#towerGrad)"/>
    <rect x="338" y="290" width="50" height="220" rx="3" fill="url(#glassTower)" opacity="0.6"/>
    <!-- Horizontal glow band -->
    <rect x="330" y="380" width="65" height="4" rx="2" fill="#6bbde8" opacity="0.8"/>
    <rect x="330" y="420" width="65" height="3" rx="2" fill="#6bbde8" opacity="0.6"/>
    <!-- Window lights -->
    <rect x="340" y="310" width="10" height="4" rx="1" fill="url(#windowGlow)" opacity="0.9"/>
    <rect x="355" y="310" width="10" height="4" rx="1" fill="url(#windowGlow)" opacity="0.7"/>
    <rect x="370" y="310" width="10" height="4" rx="1" fill="url(#windowGlow)" opacity="0.8"/>
    <rect x="340" y="325" width="10" height="4" rx="1" fill="url(#windowGlow)" opacity="0.6"/>
    <rect x="370" y="325" width="10" height="4" rx="1" fill="url(#windowGlow)" opacity="0.9"/>
    <rect x="340" y="340" width="10" height="4" rx="1" fill="url(#windowGlow)" opacity="0.8"/>
    <rect x="355" y="340" width="10" height="4" rx="1" fill="url(#windowGlow)" opacity="0.7"/>
    <rect x="340" y="355" width="10" height="4" rx="1" fill="url(#windowGlow)" opacity="0.5"/>
    <rect x="355" y="355" width="10" height="4" rx="1" fill="url(#windowGlow)" opacity="0.8"/>
    <rect x="370" y="355" width="10" height="4" rx="1" fill="url(#windowGlow)" opacity="0.6"/>
    <!-- Antenna -->
    <rect x="359" y="285" width="3" height="20" fill="#9dd4ee" opacity="0.9"/>
    <circle cx="360.5" cy="284" r="3" fill="#6bbde8" opacity="0.8"/>
  </g>

  <!-- Tower L2: slim glass tower -->
  <g filter="url(#glow)">
    <rect x="400" y="270" width="50" height="230" rx="3" fill="url(#towerGrad)"/>
    <rect x="403" y="265" width="44" height="235" rx="4" fill="url(#glassTower)" opacity="0.55"/>
    <!-- Diagonal glass effect -->
    <line x1="403" y1="265" x2="447" y2="500" stroke="#9dd4ee" stroke-width="1" opacity="0.2"/>
    <line x1="420" y1="265" x2="447" y2="400" stroke="#9dd4ee" stroke-width="1" opacity="0.15"/>
    <!-- Windows -->
    <rect x="408" y="278" width="9" height="4" rx="1" fill="url(#windowGlow)" opacity="0.9"/>
    <rect x="421" y="278" width="9" height="4" rx="1" fill="url(#windowGlow)" opacity="0.8"/>
    <rect x="434" y="278" width="9" height="4" rx="1" fill="url(#windowGlow)" opacity="0.7"/>
    <rect x="408" y="292" width="9" height="4" rx="1" fill="url(#windowGlow)" opacity="0.6"/>
    <rect x="421" y="292" width="9" height="4" rx="1" fill="url(#windowGlow)" opacity="0.9"/>
    <rect x="434" y="292" width="9" height="4" rx="1" fill="url(#windowGlow)" opacity="0.5"/>
    <rect x="408" y="306" width="9" height="4" rx="1" fill="url(#windowGlow)" opacity="0.8"/>
    <rect x="421" y="306" width="9" height="4" rx="1" fill="url(#windowGlow)" opacity="0.7"/>
    <rect x="408" y="320" width="9" height="4" rx="1" fill="url(#windowGlow)" opacity="0.9"/>
    <rect x="434" y="320" width="9" height="4" rx="1" fill="url(#windowGlow)" opacity="0.6"/>
    <rect x="408" y="334" width="9" height="4" rx="1" fill="url(#windowGlow)" opacity="0.5"/>
    <rect x="421" y="334" width="9" height="4" rx="1" fill="url(#windowGlow)" opacity="0.8"/>
    <rect x="434" y="334" width="9" height="4" rx="1" fill="url(#windowGlow)" opacity="0.7"/>
    <!-- Glowing band -->
    <rect x="400" y="360" width="50" height="3" rx="2" fill="#6bbde8" opacity="0.7"/>
    <!-- Antenna -->
    <rect x="423" y="260" width="3" height="15" fill="#9dd4ee" opacity="0.9"/>
    <circle cx="424.5" cy="259" r="2.5" fill="#6bbde8" opacity="0.9"/>
  </g>

  <!-- === CENTER LANDMARK TOWER === -->
  <g filter="url(#softGlow)">
    <!-- Main body -->
    <rect x="575" y="200" width="90" height="310" rx="5" fill="url(#towerGrad)"/>
    <rect x="578" y="195" width="84" height="315" rx="6" fill="url(#glassTower)" opacity="0.6"/>
    <!-- Setbacks -->
    <rect x="585" y="200" width="70" height="40" rx="3" fill="#6bbde8" opacity="0.2"/>
    <!-- Horizontal glow bands -->
    <rect x="575" y="300" width="90" height="5" rx="2" fill="#6bbde8" opacity="0.8"/>
    <rect x="575" y="380" width="90" height="4" rx="2" fill="#4aaad0" opacity="0.7"/>
    <rect x="575" y="450" width="90" height="3" rx="2" fill="#4aaad0" opacity="0.5"/>
    <!-- Diagonal reflections -->
    <line x1="578" y1="195" x2="662" y2="510" stroke="#b0e0f8" stroke-width="2" opacity="0.15"/>
    <line x1="600" y1="195" x2="662" y2="400" stroke="#b0e0f8" stroke-width="1.5" opacity="0.12"/>
    <!-- Windows - upper zone -->
    <rect x="586" y="210" width="12" height="5" rx="1" fill="url(#windowGlow)" opacity="0.9"/>
    <rect x="602" y="210" width="12" height="5" rx="1" fill="url(#windowGlow)" opacity="0.8"/>
    <rect x="618" y="210" width="12" height="5" rx="1" fill="url(#windowGlow)" opacity="0.9"/>
    <rect x="634" y="210" width="12" height="5" rx="1" fill="url(#windowGlow)" opacity="0.7"/>
    <rect x="586" y="222" width="12" height="5" rx="1" fill="url(#windowGlow)" opacity="0.6"/>
    <rect x="602" y="222" width="12" height="5" rx="1" fill="url(#windowGlow)" opacity="0.9"/>
    <rect x="618" y="222" width="12" height="5" rx="1" fill="url(#windowGlow)" opacity="0.7"/>
    <rect x="634" y="222" width="12" height="5" rx="1" fill="url(#windowGlow)" opacity="0.8"/>
    <rect x="586" y="234" width="12" height="5" rx="1" fill="url(#windowGlow)" opacity="0.8"/>
    <rect x="618" y="234" width="12" height="5" rx="1" fill="url(#windowGlow)" opacity="0.9"/>
    <rect x="634" y="234" width="12" height="5" rx="1" fill="url(#windowGlow)" opacity="0.6"/>
    <rect x="586" y="246" width="12" height="5" rx="1" fill="url(#windowGlow)" opacity="0.7"/>
    <rect x="602" y="246" width="12" height="5" rx="1" fill="url(#windowGlow)" opacity="0.8"/>
    <rect x="618" y="246" width="12" height="5" rx="1" fill="url(#windowGlow)" opacity="0.5"/>
    <rect x="634" y="246" width="12" height="5" rx="1" fill="url(#windowGlow)" opacity="0.9"/>
    <!-- Windows - mid zone -->
    <rect x="586" y="315" width="12" height="5" rx="1" fill="url(#windowGlow)" opacity="0.8"/>
    <rect x="602" y="315" width="12" height="5" rx="1" fill="url(#windowGlow)" opacity="0.9"/>
    <rect x="618" y="315" width="12" height="5" rx="1" fill="url(#windowGlow)" opacity="0.6"/>
    <rect x="634" y="315" width="12" height="5" rx="1" fill="url(#windowGlow)" opacity="0.7"/>
    <rect x="586" y="327" width="12" height="5" rx="1" fill="url(#windowGlow)" opacity="0.5"/>
    <rect x="602" y="327" width="12" height="5" rx="1" fill="url(#windowGlow)" opacity="0.8"/>
    <rect x="618" y="327" width="12" height="5" rx="1" fill="url(#windowGlow)" opacity="0.9"/>
    <rect x="586" y="339" width="12" height="5" rx="1" fill="url(#windowGlow)" opacity="0.7"/>
    <rect x="602" y="339" width="12" height="5" rx="1" fill="url(#windowGlow)" opacity="0.6"/>
    <rect x="618" y="339" width="12" height="5" rx="1" fill="url(#windowGlow)" opacity="0.8"/>
    <rect x="634" y="339" width="12" height="5" rx="1" fill="url(#windowGlow)" opacity="0.9"/>
    <!-- Spire -->
    <polygon points="620,195 620,145 621,145" fill="none"/>
    <rect x="617" y="145" width="5" height="60" rx="2" fill="#9dd4ee" opacity="0.9"/>
    <circle cx="619.5" cy="143" r="5" fill="#6bbde8" opacity="0.9"/>
    <circle cx="619.5" cy="143" r="8" fill="#4aaad0" opacity="0.3"/>
    <!-- Top observation deck -->
    <rect x="590" y="192" width="60" height="12" rx="3" fill="#2a5a7a"/>
    <rect x="590" y="192" width="60" height="5" rx="2" fill="#6bbde8" opacity="0.5"/>
  </g>

  <!-- Tower R1: twin towers connected -->
  <g filter="url(#glow)">
    <rect x="780" y="260" width="48" height="250" rx="4" fill="url(#towerGrad)"/>
    <rect x="783" y="255" width="42" height="255" rx="4" fill="url(#glassTower)" opacity="0.55"/>
    <rect x="835" y="275" width="48" height="235" rx="4" fill="url(#towerGrad)"/>
    <rect x="838" y="270" width="42" height="240" rx="4" fill="url(#glassTower)" opacity="0.55"/>
    <!-- Bridge connector between towers -->
    <rect x="828" y="340" width="12" height="15" rx="2" fill="#2a5a7a"/>
    <rect x="828" y="343" width="12" height="4" rx="1" fill="#6bbde8" opacity="0.7"/>
    <!-- Glow bands -->
    <rect x="780" y="340" width="48" height="3" rx="1" fill="#6bbde8" opacity="0.7"/>
    <rect x="835" y="340" width="48" height="3" rx="1" fill="#6bbde8" opacity="0.7"/>
    <rect x="780" y="400" width="48" height="2" rx="1" fill="#4aaad0" opacity="0.5"/>
    <rect x="835" y="400" width="48" height="2" rx="1" fill="#4aaad0" opacity="0.5"/>
    <!-- Windows L -->
    <rect x="788" y="270" width="8" height="4" rx="1" fill="url(#windowGlow)" opacity="0.8"/>
    <rect x="800" y="270" width="8" height="4" rx="1" fill="url(#windowGlow)" opacity="0.6"/>
    <rect x="812" y="270" width="8" height="4" rx="1" fill="url(#windowGlow)" opacity="0.9"/>
    <rect x="788" y="283" width="8" height="4" rx="1" fill="url(#windowGlow)" opacity="0.7"/>
    <rect x="800" y="283" width="8" height="4" rx="1" fill="url(#windowGlow)" opacity="0.9"/>
    <rect x="812" y="283" width="8" height="4" rx="1" fill="url(#windowGlow)" opacity="0.5"/>
    <rect x="788" y="296" width="8" height="4" rx="1" fill="url(#windowGlow)" opacity="0.8"/>
    <rect x="800" y="296" width="8" height="4" rx="1" fill="url(#windowGlow)" opacity="0.7"/>
    <rect x="812" y="296" width="8" height="4" rx="1" fill="url(#windowGlow)" opacity="0.6"/>
    <rect x="788" y="309" width="8" height="4" rx="1" fill="url(#windowGlow)" opacity="0.9"/>
    <rect x="812" y="309" width="8" height="4" rx="1" fill="url(#windowGlow)" opacity="0.8"/>
    <!-- Windows R -->
    <rect x="843" y="285" width="8" height="4" rx="1" fill="url(#windowGlow)" opacity="0.9"/>
    <rect x="855" y="285" width="8" height="4" rx="1" fill="url(#windowGlow)" opacity="0.7"/>
    <rect x="867" y="285" width="8" height="4" rx="1" fill="url(#windowGlow)" opacity="0.8"/>
    <rect x="843" y="298" width="8" height="4" rx="1" fill="url(#windowGlow)" opacity="0.6"/>
    <rect x="855" y="298" width="8" height="4" rx="1" fill="url(#windowGlow)" opacity="0.9"/>
    <rect x="843" y="311" width="8" height="4" rx="1" fill="url(#windowGlow)" opacity="0.8"/>
    <rect x="867" y="311" width="8" height="4" rx="1" fill="url(#windowGlow)" opacity="0.7"/>
    <rect x="843" y="324" width="8" height="4" rx="1" fill="url(#windowGlow)" opacity="0.5"/>
    <rect x="855" y="324" width="8" height="4" rx="1" fill="url(#windowGlow)" opacity="0.8"/>
    <!-- Antennas -->
    <rect x="801" y="250" width="3" height="15" fill="#9dd4ee" opacity="0.9"/>
    <circle cx="802.5" cy="249" r="2.5" fill="#6bbde8" opacity="0.9"/>
    <rect x="855" y="265" width="3" height="12" fill="#9dd4ee" opacity="0.9"/>
    <circle cx="856.5" cy="264" r="2" fill="#6bbde8" opacity="0.8"/>
  </g>

  <!-- Tower R2: curved/organic tower -->
  <g filter="url(#glow)">
    <rect x="900" y="285" width="58" height="225" rx="8" fill="url(#towerGrad)"/>
    <rect x="904" y="280" width="50" height="230" rx="8" fill="url(#glassTower)" opacity="0.6"/>
    <!-- Curved glass effect -->
    <ellipse cx="929" cy="395" rx="26" ry="115" fill="none" stroke="#b0e0f8" stroke-width="1.5" opacity="0.2"/>
    <!-- Glow bands -->
    <rect x="900" y="350" width="58" height="3" rx="2" fill="#6bbde8" opacity="0.7"/>
    <rect x="900" y="420" width="58" height="2" rx="2" fill="#4aaad0" opacity="0.5"/>
    <!-- Windows -->
    <rect x="912" y="295" width="9" height="4" rx="1" fill="url(#windowGlow)" opacity="0.8"/>
    <rect x="925" y="295" width="9" height="4" rx="1" fill="url(#windowGlow)" opacity="0.9"/>
    <rect x="938" y="295" width="9" height="4" rx="1" fill="url(#windowGlow)" opacity="0.7"/>
    <rect x="912" y="308" width="9" height="4" rx="1" fill="url(#windowGlow)" opacity="0.6"/>
    <rect x="925" y="308" width="9" height="4" rx="1" fill="url(#windowGlow)" opacity="0.8"/>
    <rect x="938" y="308" width="9" height="4" rx="1" fill="url(#windowGlow)" opacity="0.9"/>
    <rect x="912" y="321" width="9" height="4" rx="1" fill="url(#windowGlow)" opacity="0.7"/>
    <rect x="925" y="321" width="9" height="4" rx="1" fill="url(#windowGlow)" opacity="0.5"/>
    <rect x="938" y="321" width="9" height="4" rx="1" fill="url(#windowGlow)" opacity="0.8"/>
    <rect x="912" y="334" width="9" height="4" rx="1" fill="url(#windowGlow)" opacity="0.9"/>
    <rect x="925" y="334" width="9" height="4" rx="1" fill="url(#windowGlow)" opacity="0.7"/>
    <!-- Antenna -->
    <rect x="926" y="276" width="3" height="14" fill="#9dd4ee" opacity="0.9"/>
    <circle cx="927.5" cy="275" r="2.5" fill="#6bbde8" opacity="0.9"/>
  </g>

  <!-- === LOWER BUILDINGS / URBAN FABRIC === -->
  <!-- Central dense block -->
  <g opacity="0.85">
    <rect x="460" y="430" width="70" height="80" rx="3" fill="#1a3050"/>
    <rect x="540" y="415" width="60" height="95" rx="3" fill="#1e3555"/>
    <rect x="665" y="420" width="65" height="90" rx="3" fill="#1a3050"/>
    <rect x="740" y="410" width="55" height="100" rx="3" fill="#1e3555"/>
    <!-- Window lights on lower buildings -->
    <rect x="468" y="440" width="7" height="3" rx="1" fill="#7ac4e0" opacity="0.6"/>
    <rect x="480" y="440" width="7" height="3" rx="1" fill="#7ac4e0" opacity="0.5"/>
    <rect x="492" y="440" width="7" height="3" rx="1" fill="#7ac4e0" opacity="0.7"/>
    <rect x="468" y="450" width="7" height="3" rx="1" fill="#7ac4e0" opacity="0.4"/>
    <rect x="480" y="450" width="7" height="3" rx="1" fill="#7ac4e0" opacity="0.6"/>
    <rect x="548" y="425" width="7" height="3" rx="1" fill="#7ac4e0" opacity="0.7"/>
    <rect x="560" y="425" width="7" height="3" rx="1" fill="#7ac4e0" opacity="0.5"/>
    <rect x="572" y="425" width="7" height="3" rx="1" fill="#7ac4e0" opacity="0.6"/>
    <rect x="548" y="435" width="7" height="3" rx="1" fill="#7ac4e0" opacity="0.4"/>
    <rect x="560" y="435" width="7" height="3" rx="1" fill="#7ac4e0" opacity="0.8"/>
  </g>

  <!-- === SOLAR PANEL ROOFTOPS === -->
  <g opacity="0.7">
    <!-- Solar panels on tower base podiums -->
    <rect x="460" y="430" width="70" height="8" rx="1" fill="url(#solar)"/>
    <line x1="470" y1="430" x2="470" y2="438" stroke="#2a5080" stroke-width="1"/>
    <line x1="480" y1="430" x2="480" y2="438" stroke="#2a5080" stroke-width="1"/>
    <line x1="490" y1="430" x2="490" y2="438" stroke="#2a5080" stroke-width="1"/>
    <line x1="500" y1="430" x2="500" y2="438" stroke="#2a5080" stroke-width="1"/>
    <line x1="510" y1="430" x2="510" y2="438" stroke="#2a5080" stroke-width="1"/>
    <line x1="520" y1="430" x2="520" y2="438" stroke="#2a5080" stroke-width="1"/>

    <!-- Solar panels right cluster -->
    <rect x="665" y="420" width="65" height="7" rx="1" fill="url(#solar)"/>
    <line x1="675" y1="420" x2="675" y2="427" stroke="#2a5080" stroke-width="1"/>
    <line x1="685" y1="420" x2="685" y2="427" stroke="#2a5080" stroke-width="1"/>
    <line x1="695" y1="420" x2="695" y2="427" stroke="#2a5080" stroke-width="1"/>
    <line x1="705" y1="420" x2="705" y2="427" stroke="#2a5080" stroke-width="1"/>
    <line x1="715" y1="420" x2="715" y2="427" stroke="#2a5080" stroke-width="1"/>
  </g>

  <!-- === ELEVATED TRANSIT / ROAD === -->
  <!-- Elevated light rail track -->
  <g opacity="0.9">
    <rect x="0" y="530" width="1280" height="18" rx="0" fill="url(#roadGrad)"/>
    <rect x="0" y="530" width="1280" height="3" fill="#2a5070" opacity="0.6"/>
    <!-- Rail lines -->
    <line x1="0" y1="536" x2="1280" y2="536" stroke="#4a8aaa" stroke-width="1.5" opacity="0.7"/>
    <line x1="0" y1="542" x2="1280" y2="542" stroke="#4a8aaa" stroke-width="1.5" opacity="0.7"/>
    <!-- Light trail from tram (implied motion) -->
    <rect x="380" y="532" width="120" height="14" rx="3" fill="#6bbde8" opacity="0.08"/>
    <!-- Tram vehicle -->
    <rect x="395" y="533" width="95" height="12" rx="3" fill="#1e4a6a"/>
    <rect x="397" y="534" width="91" height="10" rx="2" fill="#2a6080"/>
    <!-- Tram windows -->
    <rect x="402" y="536" width="12" height="6" rx="1" fill="#80c8e8" opacity="0.8"/>
    <rect x="418" y="536" width="12" height="6" rx="1" fill="#80c8e8" opacity="0.8"/>
    <rect x="434" y="536" width="12" height="6" rx="1" fill="#80c8e8" opacity="0.7"/>
    <rect x="450" y="536" width="12" height="6" rx="1" fill="#80c8e8" opacity="0.8"/>
    <rect x="466" y="536" width="12" height="6" rx="1" fill="#80c8e8" opacity="0.7"/>
    <!-- Tram glow -->
    <rect x="395" y="533" width="95" height="2" rx="1" fill="#6bbde8" opacity="0.6"/>
  </g>

  <!-- === GREEN PARK STRIP === -->
  <g opacity="0.75">
    <!-- Park base -->
    <rect x="0" y="548" width="1280" height="40" fill="url(#park)"/>
    <!-- Tree silhouettes -->
    <ellipse cx="60" cy="548" rx="18" ry="12" fill="#2a6030"/>
    <ellipse cx="60" cy="548" rx="12" ry="8" fill="#346838"/>
    <ellipse cx="130" cy="548" rx="20" ry="13" fill="#246028"/>
    <ellipse cx="200" cy="548" rx="16" ry="11" fill="#2a6030"/>
    <ellipse cx="280" cy="548" rx="22" ry="14" fill="#246028"/>
    <ellipse cx="350" cy="548" rx="18" ry="12" fill="#2a6030"/>
    <ellipse cx="420" cy="548" rx="20" ry="13" fill="#2e6832"/>
    <ellipse cx="500" cy="548" rx="16" ry="11" fill="#246028"/>
    <ellipse cx="570" cy="548" rx="22" ry="14" fill="#2a6030"/>
    <ellipse cx="650" cy="548" rx="18" ry="12" fill="#2e6832"/>
    <ellipse cx="730" cy="548" rx="20" ry="13" fill="#246028"/>
    <ellipse cx="810" cy="548" rx="16" ry="11" fill="#2a6030"/>
    <ellipse cx="880" cy="548" rx="22" ry="14" fill="#246028"/>
    <ellipse cx="960" cy="548" rx="18" ry="12" fill="#2a6030"/>
    <ellipse cx="1040" cy="548" rx="20" ry="13" fill="#2e6832"/>
    <ellipse cx="1120" cy="548" rx="16" ry="11" fill="#246028"/>
    <ellipse cx="1200" cy="548" rx="18" ry="12" fill="#2a6030"/>
  </g>

  <!-- === FOREGROUND STREET === -->
  <rect x="0" y="588" width="1280" height="132" fill="#0d1520"/>
  <!-- Street lanes -->
  <rect x="0" y="595" width="1280" height="2" fill="#1e3050" opacity="0.8"/>
  <rect x="0" y="620" width="1280" height="2" fill="#1e3050" opacity="0.8"/>
  <!-- Dashed center line -->
  <line x1="0" y1="608" x2="1280" y2="608" stroke="#2a5070" stroke-width="1.5" stroke-dasharray="20,15" opacity="0.6"/>
  <!-- Street glow / reflections -->
  <rect x="0" y="588" width="1280" height="15" fill="url(#cityGlow)" opacity="0.3"/>

  <!-- Street lights -->
  <g opacity="0.9">
    <line x1="170" y1="548" x2="170" y2="588" stroke="#3a6888" stroke-width="2"/>
    <ellipse cx="170" cy="548" rx="12" ry="4" fill="#6bbde8" opacity="0.8"/>
    <ellipse cx="170" cy="548" rx="20" ry="8" fill="#4aaad0" opacity="0.2"/>

    <line x1="380" y1="548" x2="380" y2="588" stroke="#3a6888" stroke-width="2"/>
    <ellipse cx="380" cy="548" rx="12" ry="4" fill="#6bbde8" opacity="0.8"/>
    <ellipse cx="380" cy="548" rx="20" ry="8" fill="#4aaad0" opacity="0.2"/>

    <line x1="590" y1="548" x2="590" y2="588" stroke="#3a6888" stroke-width="2"/>
    <ellipse cx="590" cy="548" rx="12" ry="4" fill="#6bbde8" opacity="0.8"/>
    <ellipse cx="590" cy="548" rx="20" ry="8" fill="#4aaad0" opacity="0.2"/>

    <line x1="800" y1="548" x2="800" y2="588" stroke="#3a6888" stroke-width="2"/>
    <ellipse cx="800" cy="548" rx="12" ry="4" fill="#6bbde8" opacity="0.8"/>
    <ellipse cx="800" cy="548" rx="20" ry="8" fill="#4aaad0" opacity="0.2"/>

    <line x1="1010" y1="548" x2="1010" y2="588" stroke="#3a6888" stroke-width="2"/>
    <ellipse cx="1010" cy="548" rx="12" ry="4" fill="#6bbde8" opacity="0.8"/>
    <ellipse cx="1010" cy="548" rx="20" ry="8" fill="#4aaad0" opacity="0.2"/>

    <line x1="1180" y1="548" x2="1180" y2="588" stroke="#3a6888" stroke-width="2"/>
    <ellipse cx="1180" cy="548" rx="12" ry="4" fill="#6bbde8" opacity="0.8"/>
    <ellipse cx="1180" cy="548" rx="20" ry="8" fill="#4aaad0" opacity="0.2"/>
  </g>

  <!-- Foreground pedestrians (abstract silhouettes) -->
  <g opacity="0.6" fill="#0a1825">
    <ellipse cx="220" cy="598" rx="5" ry="10"/>
    <ellipse cx="235" cy="600" rx="4" ry="9"/>
    <ellipse cx="710" cy="596" rx="5" ry="10"/>
    <ellipse cx="726" cy="599" rx="4" ry="9"/>
    <ellipse cx="740" cy="597" rx="5" ry="10"/>
    <ellipse cx="1050" cy="598" rx="4" ry="9"/>
    <ellipse cx="1065" cy="596" rx="5" ry="10"/>
  </g>

  <!-- === LABEL === -->
  <g opacity="0.85">
    <rect x="36" y="650" width="210" height="44" rx="8" fill="#0d1520" opacity="0.7"/>
    <text x="52" y="667" font-family="sans-serif" font-size="9" font-weight="bold" letter-spacing="3" fill="#6bbde8" opacity="0.9" text-anchor="start">АЛМАТЫ</text>
    <text x="52" y="683" font-family="sans-serif" font-size="13" font-weight="bold" letter-spacing="1" fill="#e8f4fc" opacity="0.95" text-anchor="start">Smart City 2050</text>
  </g>

  <!-- Overall vignette -->
  <radialGradient id="vignette" cx="50%" cy="50%" r="70%">
    <stop offset="0%" stop-color="transparent"/>
    <stop offset="100%" stop-color="#000000" stop-opacity="0.45"/>
  </radialGradient>
  <rect width="1280" height="720" fill="url(#vignette)"/>
</svg>
